<?xml version="1.0" encoding="utf-8"?>
<!-- Generator: Adobe Illustrator 15.1.0, SVG Export Plug-In . SVG Version: 6.00 Build 0)  -->
<!DOCTYPE svg PUBLIC "-//W3C//DTD SVG 1.1//EN" "http://www.w3.org/Graphics/SVG/1.1/DTD/svg11.dtd">
<svg version="1.1" id="Layer_1" xmlns="http://www.w3.org/2000/svg" xmlns:xlink="http://www.w3.org/1999/xlink" x="0px" y="0px"
	 width="612px" height="471.333px" viewBox="0 0 612 471.333" enable-background="new 0 0 612 471.333" xml:space="preserve">
<g id="Base">
	<path id="Left_Flare_1_" fill="none" stroke="#FFFFFF" stroke-opacity="0.5" stroke-miterlimit="10" d="M148.952,53.523c0,0,2.798,15.06,0.048,27.81
		c-7.47,34.631-41.757,70.921-55.125,94.875c-7.364,13.195-11.125,20.375-18.125,35.375s-16.75,49.5-17.5,82
		c-0.521,22.562-2.25,44.875-1.074,65.164c1.045,18.032,1.995,34.64,0.636,49.554c-0.378,4.153-5.798,9.076-5.798,9.076"/>
	<path id="Right_Flare" fill="none" stroke="#FFFFFF" stroke-opacity="0.5" stroke-miterlimit="10" d="M464.45,53.524c0,0-2.798,15.06-0.048,27.81
		c7.47,34.631,41.758,70.921,55.125,94.875c7.363,13.195,11.125,20.375,18.125,35.375s16.75,49.5,17.5,82
		c0.521,22.562,2.25,44.875,1.074,65.164c-1.046,18.033-1.996,34.641-0.637,49.555c0.379,4.152,5.798,9.076,5.798,9.076"/>
	<path id="Base_1_" fill="none" stroke="#FFFFFF" stroke-opacity="0.5" stroke-miterlimit="10" d="M304.701,33.499
		c134.842,0,153.877,15.741,153.877,15.741c1.649,1.075,4.105,2.872,5.872,4.285c0.28,0.225,101.118,80.308,101.118,297.975
		c0,15.799-3.329,63.105-3.329,63.105c0,2.281-1.802,4.633-4.005,5.227c0,0-95.651,17.002-251.298,17.002h-0.471
		c-155.646,0-251.298-17.002-251.298-17.002c-2.203-0.594-4.005-2.945-4.005-5.227c0,0-3.329-47.307-3.329-63.105
		c0-217.668,100.837-297.75,101.118-297.976c1.767-1.413,4.223-3.21,5.872-4.285c0,0,19.035-15.741,153.877-15.741L304.701,33.499z"
		/>
</g>
<g id="Keyboard">
	<g>
		<g>
			<path fill="none" stroke="#FFFFFF" stroke-opacity="0.5" stroke-miterlimit="10" d="M78.5,217.167c0-1.559,1.275-2.834,2.834-2.834h448.331
				c1.56,0,2.835,1.275,2.835,2.834v190.581c0,1.56-1.275,2.835-2.835,2.835h-97.58c-1.56,0-2.86-1.275-2.892-2.834l-0.137-6.915
				c-0.031-1.559-1.332-2.835-2.892-2.835l-344.831-0.165c-1.559,0-2.834-1.276-2.834-2.836V217.167z"/>
		</g>
	</g>
</g>
<g id="Sixth_Row">
	<path fill="none" stroke="#FFFFFF" stroke-opacity="0.5" stroke-miterlimit="10" d="M366.527,390.168c0,1.997-1.496,3.617-3.344,3.617H197.299
		c-1.848,0-3.346-1.62-3.346-3.617v-20.516c0-1.997,1.498-3.617,3.346-3.617h165.884c1.848,0,3.344,1.62,3.344,3.617V390.168z"/>
	<path fill="none" stroke="#FFFFFF" stroke-opacity="0.5" stroke-miterlimit="10" d="M116.894,390.168c0,1.997-1.497,3.617-3.345,3.617h-27.34
		c-1.848,0-3.345-1.62-3.345-3.617v-20.516c0-1.997,1.497-3.617,3.345-3.617h27.34c1.848,0,3.345,1.62,3.345,3.617V390.168z"/>
	<path fill="none" stroke="#FFFFFF" stroke-opacity="0.5" stroke-miterlimit="10" d="M153.924,390.168c0,1.997-1.497,3.617-3.345,3.617h-27.34
		c-1.848,0-3.345-1.62-3.345-3.617v-20.516c0-1.997,1.497-3.617,3.345-3.617h27.34c1.848,0,3.345,1.62,3.345,3.617V390.168z"/>
	<path fill="none" stroke="#FFFFFF" stroke-opacity="0.5" stroke-miterlimit="10" d="M190.954,390.168c0,1.997-1.497,3.617-3.345,3.617h-27.34
		c-1.848,0-3.345-1.62-3.345-3.617v-20.516c0-1.997,1.497-3.617,3.345-3.617h27.34c1.848,0,3.345,1.62,3.345,3.617V390.168z"/>
	<path fill="none" stroke="#FFFFFF" stroke-opacity="0.5" stroke-miterlimit="10" d="M397.924,390.168c0,1.997-1.496,3.617-3.344,3.617h-21.338
		c-1.848,0-3.346-1.62-3.346-3.617v-20.516c0-1.997,1.498-3.617,3.346-3.617h21.338c1.848,0,3.344,1.62,3.344,3.617V390.168z"/>
	<path fill="none" stroke="#FFFFFF" stroke-opacity="0.5" stroke-miterlimit="10" d="M429.322,390.168c0,1.997-1.496,3.617-3.344,3.617h-21.338
		c-1.848,0-3.346-1.62-3.346-3.617v-20.516c0-1.997,1.498-3.617,3.346-3.617h21.338c1.848,0,3.344,1.62,3.344,3.617V390.168z"/>
	<path fill="none" stroke="#FFFFFF" stroke-opacity="0.5" stroke-miterlimit="10" d="M495.033,381.216c0,1.997-1.496,3.617-3.344,3.617h-23.338
		c-1.848,0-3.346-1.62-3.346-3.617v-11.563c0-1.997,1.498-3.617,3.346-3.617h23.338c1.848,0,3.344,1.62,3.344,3.617V381.216z"/>
	<path fill="none" stroke="#FFFFFF" stroke-opacity="0.5" stroke-miterlimit="10" d="M461.457,402.966c0,1.997-1.496,3.617-3.344,3.617h-22.338
		c-1.848,0-3.346-1.62-3.346-3.617v-11.563c0-1.997,1.498-3.617,3.346-3.617h22.338c1.848,0,3.344,1.62,3.344,3.617V402.966z"/>
	<path fill="none" stroke="#FFFFFF" stroke-opacity="0.5" stroke-miterlimit="10" d="M495.033,402.966c0,1.997-1.496,3.617-3.344,3.617h-23.338
		c-1.848,0-3.346-1.62-3.346-3.617v-11.563c0-1.997,1.498-3.617,3.346-3.617h23.338c1.848,0,3.344,1.62,3.344,3.617V402.966z"/>
	<path fill="none" stroke="#FFFFFF" stroke-opacity="0.5" stroke-miterlimit="10" d="M528.135,402.966c0,1.997-1.496,3.617-3.344,3.617h-21.338
		c-1.848,0-4.346-1.62-4.346-3.617v-11.563c0-1.997,2.498-3.617,4.346-3.617h21.338c1.848,0,3.344,1.62,3.344,3.617V402.966z"/>
</g>
<g id="Fifth_Row">
	<path fill="none" stroke="#FFFFFF" stroke-opacity="0.5" stroke-miterlimit="10" d="M178.242,359.418c0,1.997-1.497,3.617-3.345,3.617h-21.338
		c-1.848,0-3.345-1.62-3.345-3.617v-20.516c0-1.997,1.497-3.617,3.345-3.617h21.338c1.848,0,3.345,1.62,3.345,3.617V359.418z"/>
	<path fill="none" stroke="#FFFFFF" stroke-opacity="0.5" stroke-miterlimit="10" d="M209.64,359.418c0,1.997-1.497,3.617-3.345,3.617h-21.338
		c-1.848,0-3.345-1.62-3.345-3.617v-20.516c0-1.997,1.497-3.617,3.345-3.617h21.338c1.848,0,3.345,1.62,3.345,3.617V359.418z"/>
	<path fill="none" stroke="#FFFFFF" stroke-opacity="0.5" stroke-miterlimit="10" d="M241.038,359.418c0,1.997-1.497,3.617-3.345,3.617h-21.338
		c-1.848,0-3.345-1.62-3.345-3.617v-20.516c0-1.997,1.497-3.617,3.345-3.617h21.338c1.848,0,3.345,1.62,3.345,3.617V359.418z"/>
	<path fill="none" stroke="#FFFFFF" stroke-opacity="0.5" stroke-miterlimit="10" d="M272.435,359.418c0,1.997-1.497,3.617-3.345,3.617h-21.338
		c-1.848,0-3.345-1.62-3.345-3.617v-20.516c0-1.997,1.497-3.617,3.345-3.617h21.338c1.848,0,3.345,1.62,3.345,3.617V359.418z"/>
	<path fill="none" stroke="#FFFFFF" stroke-opacity="0.5" stroke-miterlimit="10" d="M303.833,359.418c0,1.997-1.497,3.617-3.345,3.617H279.15
		c-1.848,0-3.345-1.62-3.345-3.617v-20.516c0-1.997,1.497-3.617,3.345-3.617h21.338c1.848,0,3.345,1.62,3.345,3.617V359.418z"/>
	<path fill="none" stroke="#FFFFFF" stroke-opacity="0.5" stroke-miterlimit="10" d="M335.231,359.418c0,1.997-1.496,3.617-3.344,3.617h-21.34
		c-1.848,0-3.344-1.62-3.344-3.617v-20.516c0-1.997,1.496-3.617,3.344-3.617h21.34c1.848,0,3.344,1.62,3.344,3.617V359.418z"/>
	<path fill="none" stroke="#FFFFFF" stroke-opacity="0.5" stroke-miterlimit="10" d="M366.629,359.418c0,1.997-1.498,3.617-3.346,3.617h-21.338
		c-1.848,0-3.344-1.62-3.344-3.617v-20.516c0-1.997,1.496-3.617,3.344-3.617h21.338c1.848,0,3.346,1.62,3.346,3.617V359.418z"/>
	<path fill="none" stroke="#FFFFFF" stroke-opacity="0.5" stroke-miterlimit="10" d="M398.026,359.418c0,1.997-1.496,3.617-3.344,3.617h-21.338
		c-1.848,0-3.346-1.62-3.346-3.617v-20.516c0-1.997,1.498-3.617,3.346-3.617h21.338c1.848,0,3.344,1.62,3.344,3.617V359.418z"/>
	<path fill="none" stroke="#FFFFFF" stroke-opacity="0.5" stroke-miterlimit="10" d="M429.425,359.418c0,1.997-1.498,3.617-3.346,3.617h-21.338
		c-1.848,0-3.344-1.62-3.344-3.617v-20.516c0-1.997,1.496-3.617,3.344-3.617h21.338c1.848,0,3.346,1.62,3.346,3.617V359.418z"/>
	<path fill="none" stroke="#FFFFFF" stroke-opacity="0.5" stroke-miterlimit="10" d="M460.822,359.418c0,1.997-1.496,3.617-3.344,3.617h-21.338
		c-1.848,0-3.346-1.62-3.346-3.617v-20.516c0-1.997,1.498-3.617,3.346-3.617h21.338c1.848,0,3.344,1.62,3.344,3.617V359.418z"/>
	<path fill="none" stroke="#FFFFFF" stroke-opacity="0.5" stroke-miterlimit="10" d="M528.5,359.418c0,1.997-1.496,3.617-3.344,3.617h-57.988
		c-1.848,0-3.346-1.62-3.346-3.617v-20.516c0-1.997,1.498-3.617,3.346-3.617h57.988c1.848,0,3.344,1.62,3.344,3.617V359.418z"/>
	<path fill="none" stroke="#FFFFFF" stroke-opacity="0.5" stroke-miterlimit="10" d="M147.214,359.418c0,1.997-1.497,3.617-3.345,3.617H85.845
		c-1.848,0-3.345-1.62-3.345-3.617v-20.516c0-1.997,1.497-3.617,3.345-3.617h58.025c1.848,0,3.345,1.62,3.345,3.617V359.418z"/>
</g>
<g id="Fourth_Row">
	<path fill="none" stroke="#FFFFFF" stroke-opacity="0.5" stroke-miterlimit="10" d="M164.191,328.668c0,1.997-1.497,3.617-3.345,3.617h-21.338
		c-1.848,0-3.345-1.62-3.345-3.617v-20.516c0-1.997,1.497-3.617,3.345-3.617h21.338c1.848,0,3.345,1.62,3.345,3.617V328.668z"/>
	<path fill="none" stroke="#FFFFFF" stroke-opacity="0.5" stroke-miterlimit="10" d="M195.255,328.668c0,1.997-1.497,3.617-3.345,3.617h-21.338
		c-1.848,0-3.345-1.62-3.345-3.617v-20.516c0-1.997,1.497-3.617,3.345-3.617h21.338c1.848,0,3.345,1.62,3.345,3.617V328.668z"/>
	<path fill="none" stroke="#FFFFFF" stroke-opacity="0.5" stroke-miterlimit="10" d="M226.32,328.668c0,1.997-1.497,3.617-3.345,3.617h-21.338
		c-1.848,0-3.345-1.62-3.345-3.617v-20.516c0-1.997,1.497-3.617,3.345-3.617h21.338c1.848,0,3.345,1.62,3.345,3.617V328.668z"/>
	<path fill="none" stroke="#FFFFFF" stroke-opacity="0.5" stroke-miterlimit="10" d="M257.384,328.668c0,1.997-1.497,3.617-3.345,3.617h-21.338
		c-1.848,0-3.345-1.62-3.345-3.617v-20.516c0-1.997,1.497-3.617,3.345-3.617h21.338c1.848,0,3.345,1.62,3.345,3.617V328.668z"/>
	<path fill="none" stroke="#FFFFFF" stroke-opacity="0.5" stroke-miterlimit="10" d="M288.449,328.668c0,1.997-1.497,3.617-3.345,3.617h-21.338
		c-1.848,0-3.345-1.62-3.345-3.617v-20.516c0-1.997,1.497-3.617,3.345-3.617h21.338c1.848,0,3.345,1.62,3.345,3.617V328.668z"/>
	<path fill="none" stroke="#FFFFFF" stroke-opacity="0.5" stroke-miterlimit="10" d="M319.514,328.668c0,1.997-1.497,3.617-3.345,3.617h-21.338
		c-1.848,0-3.345-1.62-3.345-3.617v-20.516c0-1.997,1.497-3.617,3.345-3.617h21.338c1.848,0,3.345,1.62,3.345,3.617V328.668z"/>
	<path fill="none" stroke="#FFFFFF" stroke-opacity="0.5" stroke-miterlimit="10" d="M350.578,328.668c0,1.997-1.498,3.617-3.346,3.617h-21.338
		c-1.848,0-3.344-1.62-3.344-3.617v-20.516c0-1.997,1.496-3.617,3.344-3.617h21.338c1.848,0,3.346,1.62,3.346,3.617V328.668z"/>
	<path fill="none" stroke="#FFFFFF" stroke-opacity="0.5" stroke-miterlimit="10" d="M381.643,328.668c0,1.997-1.497,3.617-3.345,3.617H356.96
		c-1.848,0-3.345-1.62-3.345-3.617v-20.516c0-1.997,1.497-3.617,3.345-3.617h21.338c1.848,0,3.345,1.62,3.345,3.617V328.668z"/>
	<path fill="none" stroke="#FFFFFF" stroke-opacity="0.5" stroke-miterlimit="10" d="M412.707,328.668c0,1.997-1.498,3.617-3.346,3.617h-21.338
		c-1.848,0-3.344-1.62-3.344-3.617v-20.516c0-1.997,1.496-3.617,3.344-3.617h21.338c1.848,0,3.346,1.62,3.346,3.617V328.668z"/>
	<path fill="none" stroke="#FFFFFF" stroke-opacity="0.5" stroke-miterlimit="10" d="M443.771,328.668c0,1.997-1.497,3.617-3.345,3.617h-21.338
		c-1.848,0-3.345-1.62-3.345-3.617v-20.516c0-1.997,1.497-3.617,3.345-3.617h21.338c1.848,0,3.345,1.62,3.345,3.617V328.668z"/>
	<path fill="none" stroke="#FFFFFF" stroke-opacity="0.5" stroke-miterlimit="10" d="M474.836,328.668c0,1.997-1.498,3.617-3.346,3.617h-21.338
		c-1.848,0-3.344-1.62-3.344-3.617v-20.516c0-1.997,1.496-3.617,3.344-3.617h21.338c1.848,0,3.346,1.62,3.346,3.617V328.668z"/>
	<path fill="none" stroke="#FFFFFF" stroke-opacity="0.5" stroke-miterlimit="10" d="M528.5,328.668c0,1.997-1.497,3.617-3.345,3.617h-43.975
		c-1.848,0-3.345-1.62-3.345-3.617v-20.516c0-1.997,1.497-3.617,3.345-3.617h43.975c1.848,0,3.345,1.62,3.345,3.617V328.668z"/>
	<path fill="none" stroke="#FFFFFF" stroke-opacity="0.5" stroke-miterlimit="10" d="M132.716,328.668c0,1.997-1.497,3.617-3.345,3.617H85.845
		c-1.848,0-3.345-1.62-3.345-3.617v-20.516c0-1.997,1.497-3.617,3.345-3.617h43.526c1.848,0,3.345,1.62,3.345,3.617V328.668z"/>
</g>
<g id="Third_Row_13_">
	<path fill="none" stroke="#FFFFFF" stroke-opacity="0.5" stroke-miterlimit="10" d="M155.726,297.918c0,1.997-1.497,3.617-3.345,3.617h-21.338
		c-1.848,0-3.345-1.62-3.345-3.617v-20.516c0-1.997,1.497-3.617,3.345-3.617h21.338c1.848,0,3.345,1.62,3.345,3.617V297.918z"/>
	<path fill="none" stroke="#FFFFFF" stroke-opacity="0.5" stroke-miterlimit="10" d="M186.791,297.918c0,1.997-1.497,3.617-3.345,3.617h-21.338
		c-1.848,0-3.345-1.62-3.345-3.617v-20.516c0-1.997,1.497-3.617,3.345-3.617h21.338c1.848,0,3.345,1.62,3.345,3.617V297.918z"/>
	<path fill="none" stroke="#FFFFFF" stroke-opacity="0.5" stroke-miterlimit="10" d="M217.855,297.918c0,1.997-1.497,3.617-3.345,3.617h-21.338
		c-1.848,0-3.345-1.62-3.345-3.617v-20.516c0-1.997,1.497-3.617,3.345-3.617h21.338c1.848,0,3.345,1.62,3.345,3.617V297.918z"/>
	<path fill="none" stroke="#FFFFFF" stroke-opacity="0.5" stroke-miterlimit="10" d="M248.919,297.918c0,1.997-1.497,3.617-3.345,3.617h-21.338
		c-1.848,0-3.345-1.62-3.345-3.617v-20.516c0-1.997,1.497-3.617,3.345-3.617h21.338c1.848,0,3.345,1.62,3.345,3.617V297.918z"/>
	<path fill="none" stroke="#FFFFFF" stroke-opacity="0.5" stroke-miterlimit="10" d="M279.984,297.918c0,1.997-1.497,3.617-3.345,3.617h-21.338
		c-1.848,0-3.345-1.62-3.345-3.617v-20.516c0-1.997,1.497-3.617,3.345-3.617h21.338c1.848,0,3.345,1.62,3.345,3.617V297.918z"/>
	<path fill="none" stroke="#FFFFFF" stroke-opacity="0.5" stroke-miterlimit="10" d="M311.049,297.918c0,1.997-1.497,3.617-3.345,3.617h-21.338
		c-1.848,0-3.345-1.62-3.345-3.617v-20.516c0-1.997,1.497-3.617,3.345-3.617h21.338c1.848,0,3.345,1.62,3.345,3.617V297.918z"/>
	<path fill="none" stroke="#FFFFFF" stroke-opacity="0.5" stroke-miterlimit="10" d="M342.113,297.918c0,1.997-1.498,3.617-3.346,3.617H317.43
		c-1.848,0-3.344-1.62-3.344-3.617v-20.516c0-1.997,1.496-3.617,3.344-3.617h21.338c1.848,0,3.346,1.62,3.346,3.617V297.918z"/>
	<path fill="none" stroke="#FFFFFF" stroke-opacity="0.5" stroke-miterlimit="10" d="M373.178,297.918c0,1.997-1.497,3.617-3.345,3.617h-21.338
		c-1.848,0-3.345-1.62-3.345-3.617v-20.516c0-1.997,1.497-3.617,3.345-3.617h21.338c1.848,0,3.345,1.62,3.345,3.617V297.918z"/>
	<path fill="none" stroke="#FFFFFF" stroke-opacity="0.5" stroke-miterlimit="10" d="M404.242,297.918c0,1.997-1.498,3.617-3.346,3.617h-21.338
		c-1.848,0-3.344-1.62-3.344-3.617v-20.516c0-1.997,1.496-3.617,3.344-3.617h21.338c1.848,0,3.346,1.62,3.346,3.617V297.918z"/>
	<path fill="none" stroke="#FFFFFF" stroke-opacity="0.5" stroke-miterlimit="10" d="M435.307,297.918c0,1.997-1.497,3.617-3.345,3.617h-21.338
		c-1.848,0-3.345-1.62-3.345-3.617v-20.516c0-1.997,1.497-3.617,3.345-3.617h21.338c1.848,0,3.345,1.62,3.345,3.617V297.918z"/>
	<path fill="none" stroke="#FFFFFF" stroke-opacity="0.5" stroke-miterlimit="10" d="M466.371,297.918c0,1.997-1.498,3.617-3.346,3.617h-21.338
		c-1.848,0-3.344-1.62-3.344-3.617v-20.516c0-1.997,1.496-3.617,3.344-3.617h21.338c1.848,0,3.346,1.62,3.346,3.617V297.918z"/>
	<path fill="none" stroke="#FFFFFF" stroke-opacity="0.5" stroke-miterlimit="10" d="M497.436,297.918c0,1.997-1.497,3.617-3.345,3.617h-21.338
		c-1.848,0-3.345-1.62-3.345-3.617v-20.516c0-1.997,1.497-3.617,3.345-3.617h21.338c1.848,0,3.345,1.62,3.345,3.617V297.918z"/>
	<path fill="none" stroke="#FFFFFF" stroke-opacity="0.5" stroke-miterlimit="10" d="M528.5,297.918c0,1.997-1.497,3.617-3.345,3.617h-21.338
		c-1.848,0-3.345-1.62-3.345-3.617v-20.516c0-1.997,1.497-3.617,3.345-3.617h21.338c1.848,0,3.345,1.62,3.345,3.617V297.918z"/>
	<path fill="none" stroke="#FFFFFF" stroke-opacity="0.5" stroke-miterlimit="10" d="M124.699,297.918c0,1.997-1.497,3.617-3.345,3.617H85.845
		c-1.848,0-3.345-1.62-3.345-3.617v-20.516c0-1.997,1.497-3.617,3.345-3.617h35.509c1.848,0,3.345,1.62,3.345,3.617V297.918z"/>
</g>
<g id="Second_Row">
	<path fill="none" stroke="#FFFFFF" stroke-opacity="0.5" stroke-miterlimit="10" d="M110.527,267.216c0,1.997-1.497,3.617-3.345,3.617H85.845
		c-1.848,0-3.345-1.62-3.345-3.617V246.7c0-1.997,1.497-3.617,3.345-3.617h21.338c1.848,0,3.345,1.62,3.345,3.617V267.216z"/>
	<path fill="none" stroke="#FFFFFF" stroke-opacity="0.5" stroke-miterlimit="10" d="M141.712,267.216c0,1.997-1.497,3.617-3.345,3.617H117.03
		c-1.848,0-3.345-1.62-3.345-3.617V246.7c0-1.997,1.497-3.617,3.345-3.617h21.338c1.848,0,3.345,1.62,3.345,3.617V267.216z"/>
	<path fill="none" stroke="#FFFFFF" stroke-opacity="0.5" stroke-miterlimit="10" d="M172.898,267.216c0,1.997-1.497,3.617-3.345,3.617h-21.338
		c-1.848,0-3.345-1.62-3.345-3.617V246.7c0-1.997,1.497-3.617,3.345-3.617h21.338c1.848,0,3.345,1.62,3.345,3.617V267.216z"/>
	<path fill="none" stroke="#FFFFFF" stroke-opacity="0.5" stroke-miterlimit="10" d="M204.083,267.216c0,1.997-1.497,3.617-3.345,3.617H179.4
		c-1.848,0-3.345-1.62-3.345-3.617V246.7c0-1.997,1.497-3.617,3.345-3.617h21.338c1.848,0,3.345,1.62,3.345,3.617V267.216z"/>
	<path fill="none" stroke="#FFFFFF" stroke-opacity="0.5" stroke-miterlimit="10" d="M235.268,267.216c0,1.997-1.497,3.617-3.345,3.617h-21.338
		c-1.848,0-3.345-1.62-3.345-3.617V246.7c0-1.997,1.497-3.617,3.345-3.617h21.338c1.848,0,3.345,1.62,3.345,3.617V267.216z"/>
	<path fill="none" stroke="#FFFFFF" stroke-opacity="0.5" stroke-miterlimit="10" d="M266.454,267.216c0,1.997-1.497,3.617-3.345,3.617h-21.338
		c-1.848,0-3.345-1.62-3.345-3.617V246.7c0-1.997,1.497-3.617,3.345-3.617h21.338c1.848,0,3.345,1.62,3.345,3.617V267.216z"/>
	<path fill="none" stroke="#FFFFFF" stroke-opacity="0.5" stroke-miterlimit="10" d="M297.639,267.216c0,1.997-1.497,3.617-3.345,3.617h-21.338
		c-1.848,0-3.345-1.62-3.345-3.617V246.7c0-1.997,1.497-3.617,3.345-3.617h21.338c1.848,0,3.345,1.62,3.345,3.617V267.216z"/>
	<path fill="none" stroke="#FFFFFF" stroke-opacity="0.5" stroke-miterlimit="10" d="M328.824,267.216c0,1.997-1.497,3.617-3.345,3.617h-21.338
		c-1.848,0-3.345-1.62-3.345-3.617V246.7c0-1.997,1.497-3.617,3.345-3.617h21.338c1.848,0,3.345,1.62,3.345,3.617V267.216z"/>
	<path fill="none" stroke="#FFFFFF" stroke-opacity="0.5" stroke-miterlimit="10" d="M360.009,267.216c0,1.997-1.497,3.617-3.345,3.617h-21.338
		c-1.848,0-3.345-1.62-3.345-3.617V246.7c0-1.997,1.497-3.617,3.345-3.617h21.338c1.848,0,3.345,1.62,3.345,3.617V267.216z"/>
	<path fill="none" stroke="#FFFFFF" stroke-opacity="0.5" stroke-miterlimit="10" d="M391.194,267.216c0,1.997-1.497,3.617-3.345,3.617h-21.338
		c-1.848,0-3.345-1.62-3.345-3.617V246.7c0-1.997,1.497-3.617,3.345-3.617h21.338c1.848,0,3.345,1.62,3.345,3.617V267.216z"/>
	<path fill="none" stroke="#FFFFFF" stroke-opacity="0.5" stroke-miterlimit="10" d="M422.38,267.216c0,1.997-1.497,3.617-3.345,3.617h-21.338
		c-1.848,0-3.345-1.62-3.345-3.617V246.7c0-1.997,1.497-3.617,3.345-3.617h21.338c1.848,0,3.345,1.62,3.345,3.617V267.216z"/>
	<path fill="none" stroke="#FFFFFF" stroke-opacity="0.5" stroke-miterlimit="10" d="M453.564,267.216c0,1.997-1.497,3.617-3.345,3.617h-21.338
		c-1.848,0-3.345-1.62-3.345-3.617V246.7c0-1.997,1.497-3.617,3.345-3.617h21.338c1.848,0,3.345,1.62,3.345,3.617V267.216z"/>
	<path fill="none" stroke="#FFFFFF" stroke-opacity="0.5" stroke-miterlimit="10" d="M484.75,267.216c0,1.997-1.497,3.617-3.345,3.617h-21.338
		c-1.848,0-3.345-1.62-3.345-3.617V246.7c0-1.997,1.497-3.617,3.345-3.617h21.338c1.848,0,3.345,1.62,3.345,3.617V267.216z"/>
	<path fill="none" stroke="#FFFFFF" stroke-opacity="0.5" stroke-miterlimit="10" d="M528.5,267.216c0,1.997-1.497,3.617-3.345,3.617h-34.061
		c-1.848,0-3.345-1.62-3.345-3.617V246.7c0-1.997,1.497-3.617,3.345-3.617h34.061c1.848,0,3.345,1.62,3.345,3.617V267.216z"/>
</g>
<g id="First_Row">
	<path fill="none" stroke="#FFFFFF" stroke-opacity="0.5" stroke-miterlimit="10" d="M528.5,237.248c0,1.565-1.257,2.835-2.808,2.835H507.78
		c-1.551,0-2.808-1.27-2.808-2.835v-16.08c0-1.565,1.257-2.835,2.808-2.835h17.912c1.551,0,2.808,1.27,2.808,2.835V237.248z"/>
	<path fill="none" stroke="#FFFFFF" stroke-opacity="0.5" stroke-miterlimit="10" d="M106.027,237.248c0,1.565-1.257,2.835-2.808,2.835H85.308
		c-1.551,0-2.808-1.27-2.808-2.835v-16.08c0-1.565,1.257-2.835,2.808-2.835h17.912c1.551,0,2.808,1.27,2.808,2.835V237.248z"/>
	<path fill="none" stroke="#FFFFFF" stroke-opacity="0.5" stroke-miterlimit="10" d="M132.432,237.248c0,1.565-1.257,2.835-2.808,2.835h-17.912
		c-1.551,0-2.808-1.27-2.808-2.835v-16.08c0-1.565,1.257-2.835,2.808-2.835h17.912c1.551,0,2.808,1.27,2.808,2.835V237.248z"/>
	<path fill="none" stroke="#FFFFFF" stroke-opacity="0.5" stroke-miterlimit="10" d="M158.836,237.248c0,1.565-1.257,2.835-2.808,2.835h-17.912
		c-1.551,0-2.808-1.27-2.808-2.835v-16.08c0-1.565,1.257-2.835,2.808-2.835h17.912c1.551,0,2.808,1.27,2.808,2.835V237.248z"/>
	<path fill="none" stroke="#FFFFFF" stroke-opacity="0.5" stroke-miterlimit="10" d="M185.241,237.248c0,1.565-1.257,2.835-2.808,2.835h-17.912
		c-1.551,0-2.808-1.27-2.808-2.835v-16.08c0-1.565,1.257-2.835,2.808-2.835h17.912c1.551,0,2.808,1.27,2.808,2.835V237.248z"/>
	<path fill="none" stroke="#FFFFFF" stroke-opacity="0.5" stroke-miterlimit="10" d="M211.646,237.248c0,1.565-1.257,2.835-2.808,2.835h-17.912
		c-1.551,0-2.808-1.27-2.808-2.835v-16.08c0-1.565,1.257-2.835,2.808-2.835h17.912c1.551,0,2.808,1.27,2.808,2.835V237.248z"/>
	<path fill="none" stroke="#FFFFFF" stroke-opacity="0.5" stroke-miterlimit="10" d="M238.05,237.248c0,1.565-1.257,2.835-2.808,2.835H217.33
		c-1.551,0-2.808-1.27-2.808-2.835v-16.08c0-1.565,1.257-2.835,2.808-2.835h17.912c1.551,0,2.808,1.27,2.808,2.835V237.248z"/>
	<path fill="none" stroke="#FFFFFF" stroke-opacity="0.5" stroke-miterlimit="10" d="M264.455,237.248c0,1.565-1.257,2.835-2.808,2.835h-17.912
		c-1.551,0-2.808-1.27-2.808-2.835v-16.08c0-1.565,1.257-2.835,2.808-2.835h17.912c1.551,0,2.808,1.27,2.808,2.835V237.248z"/>
	<path fill="none" stroke="#FFFFFF" stroke-opacity="0.5" stroke-miterlimit="10" d="M290.859,237.248c0,1.565-1.257,2.835-2.808,2.835H270.14
		c-1.551,0-2.808-1.27-2.808-2.835v-16.08c0-1.565,1.257-2.835,2.808-2.835h17.912c1.551,0,2.808,1.27,2.808,2.835V237.248z"/>
	<path fill="none" stroke="#FFFFFF" stroke-opacity="0.5" stroke-miterlimit="10" d="M317.264,237.248c0,1.565-1.257,2.835-2.808,2.835h-17.912
		c-1.551,0-2.808-1.27-2.808-2.835v-16.08c0-1.565,1.257-2.835,2.808-2.835h17.912c1.551,0,2.808,1.27,2.808,2.835V237.248z"/>
	<path fill="none" stroke="#FFFFFF" stroke-opacity="0.5" stroke-miterlimit="10" d="M343.668,237.248c0,1.565-1.257,2.835-2.808,2.835h-17.912
		c-1.551,0-2.808-1.27-2.808-2.835v-16.08c0-1.565,1.257-2.835,2.808-2.835h17.912c1.551,0,2.808,1.27,2.808,2.835V237.248z"/>
	<path fill="none" stroke="#FFFFFF" stroke-opacity="0.5" stroke-miterlimit="10" d="M370.072,237.248c0,1.565-1.256,2.835-2.807,2.835h-17.912
		c-1.551,0-2.809-1.27-2.809-2.835v-16.08c0-1.565,1.258-2.835,2.809-2.835h17.912c1.551,0,2.807,1.27,2.807,2.835V237.248z"/>
	<path fill="none" stroke="#FFFFFF" stroke-opacity="0.5" stroke-miterlimit="10" d="M396.478,237.248c0,1.565-1.257,2.835-2.808,2.835h-17.912
		c-1.551,0-2.808-1.27-2.808-2.835v-16.08c0-1.565,1.257-2.835,2.808-2.835h17.912c1.551,0,2.808,1.27,2.808,2.835V237.248z"/>
	<path fill="none" stroke="#FFFFFF" stroke-opacity="0.5" stroke-miterlimit="10" d="M422.882,237.248c0,1.565-1.257,2.835-2.808,2.835h-17.912
		c-1.551,0-2.808-1.27-2.808-2.835v-16.08c0-1.565,1.257-2.835,2.808-2.835h17.912c1.551,0,2.808,1.27,2.808,2.835V237.248z"/>
	<path fill="none" stroke="#FFFFFF" stroke-opacity="0.5" stroke-miterlimit="10" d="M449.286,237.248c0,1.565-1.257,2.835-2.808,2.835h-17.912
		c-1.551,0-2.808-1.27-2.808-2.835v-16.08c0-1.565,1.257-2.835,2.808-2.835h17.912c1.551,0,2.808,1.27,2.808,2.835V237.248z"/>
	<path fill="none" stroke="#FFFFFF" stroke-opacity="0.5" stroke-miterlimit="10" d="M475.691,237.248c0,1.565-1.258,2.835-2.809,2.835h-17.912
		c-1.551,0-2.807-1.27-2.807-2.835v-16.08c0-1.565,1.256-2.835,2.807-2.835h17.912c1.551,0,2.809,1.27,2.809,2.835V237.248z"/>
	<path fill="none" stroke="#FFFFFF" stroke-opacity="0.5" stroke-miterlimit="10" d="M502.096,237.248c0,1.565-1.257,2.835-2.808,2.835h-17.912
		c-1.551,0-2.808-1.27-2.808-2.835v-16.08c0-1.565,1.257-2.835,2.808-2.835h17.912c1.551,0,2.808,1.27,2.808,2.835V237.248z"/>
</g>
<path fill="none" stroke="#FFFFFF" stroke-opacity="0.5" stroke-miterlimit="10" d="M426.758,160.5c0,1.565-1.27,2.834-2.834,2.834H189.075
	c-1.565,0-2.834-1.269-2.834-2.834v-52.331c0-1.565,1.269-2.834,2.834-2.834h234.849c1.564,0,2.834,1.269,2.834,2.834V160.5z"/>
<g>
	<path fill="#FFFFFF" fill-opacity="0.5" d="M419.722,190.745h3.188l4.159,4.752v-4.752h3.217v8.59h-3.217l-4.137-4.716v4.716h-3.21V190.745z"/>
	<path fill="#FFFFFF" fill-opacity="0.5" d="M432.546,190.745h9.146v1.834h-5.727v1.365h5.312v1.752h-5.312v1.693h5.892v1.945h-9.312V190.745z"/>
	<path fill="#FFFFFF" fill-opacity="0.5" d="M443.268,195.046c0-1.402,0.502-2.494,1.507-3.275c1.004-0.781,2.403-1.172,4.196-1.172
		c1.838,0,3.255,0.384,4.249,1.151c0.995,0.768,1.492,1.843,1.492,3.226c0,1.004-0.218,1.827-0.652,2.47
		c-0.434,0.643-1.062,1.143-1.883,1.5s-1.845,0.536-3.07,0.536c-1.246,0-2.277-0.154-3.093-0.463
		c-0.816-0.309-1.479-0.797-1.985-1.465C443.521,196.886,443.268,196.05,443.268,195.046z M446.68,195.058
		c0,0.867,0.208,1.49,0.622,1.869s0.979,0.568,1.691,0.568c0.733,0,1.301-0.186,1.703-0.557c0.401-0.371,0.603-1.037,0.603-1.998
		c0-0.809-0.21-1.399-0.629-1.772c-0.42-0.373-0.988-0.56-1.707-0.56c-0.688,0-1.24,0.189-1.657,0.568
		S446.68,194.183,446.68,195.058z"/>
</g>
</svg>
