<?xml version="1.0" encoding="UTF-8"?>
<!DOCTYPE svg PUBLIC "-//W3C//DTD SVG 1.1//EN" "http://www.w3.org/Graphics/SVG/1.1/DTD/svg11.dtd">
<svg version="1.1" xmlns="http://www.w3.org/2000/svg" xmlns:xlink="http://www.w3.org/1999/xlink" width="1100" height="864"  xml:space="preserve" id="neoAcrylicCanvas">
    <!-- Generated by PaintCode (www.paintcodeapp.com) -->
    <path id="neoAcrylicCanvas-bezier" stroke="none" fill="rgb(82, 88, 99)" d="M 235.38,63.62 C 238.85,60.71 244.8,56.31 248.6,53.84 248.6,53.84 282.24,31.92 550,31.92 818.22,31.92 852.51,53.89 852.51,53.89 856.33,56.33 862.28,60.72 865.75,63.64 865.75,63.64 1054.5,222.67 1054.5,655.75 L 1054.5,771.11 C 1054.5,775.65 1050.92,780.32 1046.54,781.49 1046.54,781.49 858.47,832 550,832 240.93,832 53.45,781.5 53.45,781.5 49.08,780.32 45.5,775.65 45.5,771.12 L 45.5,655.75 C 45.5,222.67 235.38,63.62 235.38,63.62 Z M 235.38,63.62" />
</svg>
